<?xml version="1.0" standalone="no"?>
<!DOCTYPE svg PUBLIC "-//W3C//DTD SVG 20010904//EN"
 "http://www.w3.org/TR/2001/REC-SVG-20010904/DTD/svg10.dtd">
<svg version="1.0" xmlns="http://www.w3.org/2000/svg"
 width="500.000000pt" height="500.000000pt" viewBox="0 0 500.000000 500.000000"
 preserveAspectRatio="xMidYMid meet">

<g transform="translate(0.000000,500.000000) scale(0.100000,-0.100000)"
fill="#000000" stroke="none">
<path d="M815 4976 c-203 -59 -329 -127 -465 -253 -198 -184 -312 -405 -339
-655 -7 -64 -11 -612 -11 -1580 0 -1613 -1 -1590 56 -1756 125 -368 434 -637
824 -717 66 -13 272 -15 1627 -15 1110 0 1566 3 1600 11 284 67 491 188 646
379 112 138 186 292 224 463 17 77 18 173 18 1667 l0 1585 -28 100 c-50 183
-138 334 -281 483 -87 90 -187 160 -319 222 -195 91 -29 84 -1857 86 l-1615 3
-80 -23z m2029 -1116 c577 -124 1019 -513 1147 -1008 76 -297 31 -612 -128
-885 -187 -321 -534 -577 -912 -672 -223 -57 -491 -71 -711 -39 l-109 16 -63
-54 c-90 -76 -146 -113 -240 -158 -122 -59 -220 -81 -377 -87 -157 -7 -151
-17 -60 119 34 50 79 129 100 174 36 75 88 240 78 247 -2 2 -39 29 -81 61
-105 78 -262 246 -327 350 -259 416 -252 896 20 1311 69 106 269 304 379 377
206 136 438 225 684 263 138 21 471 13 600 -15z"/>
<path d="M1796 2690 c-96 -29 -122 -159 -46 -224 58 -48 136 -42 184 15 83 99
-14 246 -138 209z"/>
<path d="M2445 2681 c-99 -45 -100 -188 -2 -234 44 -21 70 -21 113 -1 66 32
94 122 57 185 -17 28 -84 69 -114 69 -8 0 -32 -9 -54 -19z"/>
<path d="M3114 2686 c-90 -40 -108 -157 -33 -220 83 -70 212 -14 212 92 0 99
-94 166 -179 128z"/>
</g>
</svg>
